<mxfile host="app.diagrams.net" modified="2020-12-11T15:06:46.109Z" agent="5.0 (X11)" etag="DGNalBQy1bnzCuE8hKhM" version="14.0.1" type="github">
  <diagram id="ytBd_0UV_WSInV7KMpm_" name="Page-1">
    <mxGraphModel dx="1718" dy="904" grid="1" gridSize="10" guides="1" tooltips="1" connect="1" arrows="1" fold="1" page="1" pageScale="1" pageWidth="850" pageHeight="1100" math="0" shadow="0">
      <root>
        <mxCell id="0" />
        <mxCell id="1" parent="0" />
        <mxCell id="bhDUzk-cqeY6hgBoZwq5-1" value="" style="outlineConnect=0;dashed=0;verticalLabelPosition=bottom;verticalAlign=top;align=center;html=1;shape=mxgraph.aws3.virtual_private_cloud;fillColor=#F58534;gradientColor=none;" vertex="1" parent="1">
          <mxGeometry x="100" y="60" width="79.5" height="54" as="geometry" />
        </mxCell>
      </root>
    </mxGraphModel>
  </diagram>
</mxfile>
